<?xml version="1.0" encoding="UTF-8"?>
<!DOCTYPE svg PUBLIC "-//W3C//DTD SVG 1.1//EN" "http://www.w3.org/Graphics/SVG/1.1/DTD/svg11.dtd">
<svg xmlns="http://www.w3.org/2000/svg" version="1.1" width="1080px" height="1080px" style="shape-rendering:geometricPrecision; text-rendering:geometricPrecision; image-rendering:optimizeQuality; fill-rule:evenodd; clip-rule:evenodd" xmlns:xlink="http://www.w3.org/1999/xlink">
<g><path style="opacity:1" fill="#c00d00" d="M -0.5,-0.5 C 359.5,-0.5 719.5,-0.5 1079.5,-0.5C 1079.5,359.5 1079.5,719.5 1079.5,1079.5C 911.833,1079.5 744.167,1079.5 576.5,1079.5C 576.616,1004.17 576.949,928.832 577.5,853.5C 578.376,768.836 579.209,684.17 580,599.5C 580.717,598.956 581.217,598.289 581.5,597.5C 581.5,596.833 581.833,596.5 582.5,596.5C 592.309,589.363 600.309,580.696 606.5,570.5C 607.167,569.833 607.833,569.167 608.5,568.5C 609.15,568.196 609.817,567.863 610.5,567.5C 611.504,564.155 612.504,560.821 613.5,557.5C 614.79,556.942 615.623,555.942 616,554.5C 617.516,544.199 617.516,533.866 616,523.5C 615.617,522.944 615.117,522.611 614.5,522.5C 611.097,517.326 608.43,511.659 606.5,505.5C 604.192,505.035 602.858,503.701 602.5,501.5C 594.555,491.887 585.889,482.887 576.5,474.5C 573.923,470.754 570.589,467.921 566.5,466C 563.649,464.711 560.649,464.211 557.5,464.5C 557.167,463.5 556.5,462.833 555.5,462.5C 554.486,461.235 552.986,460.569 551,460.5C 540.151,459.204 529.318,459.371 518.5,461C 516.569,461.902 514.903,463.069 513.5,464.5C 512.127,464.343 510.793,464.51 509.5,465C 497.691,473.644 487.025,483.477 477.5,494.5C 476.833,494.5 476.5,494.833 476.5,495.5C 475.761,495.369 475.094,495.536 474.5,496C 468.5,502.651 463.333,509.818 459,517.5C 458.501,521.152 458.335,524.818 458.5,528.5C 458.299,531.508 457.966,534.508 457.5,537.5C 457.568,540.438 458.234,543.105 459.5,545.5C 459.334,550.179 459.501,554.845 460,559.5C 460.383,560.056 460.883,560.389 461.5,560.5C 461.333,565.47 463.333,569.136 467.5,571.5C 468.757,574.427 470.757,576.761 473.5,578.5C 479.464,584.965 485.631,591.298 492,597.5C 492.411,602.519 492.911,607.519 493.5,612.5C 492.167,632.489 491.5,652.822 491.5,673.5C 490.759,746.165 490.426,818.832 490.5,891.5C 490.5,900.5 490.5,909.5 490.5,918.5C 489.224,971.995 488.558,1025.66 488.5,1079.5C 325.5,1079.5 162.5,1079.5 -0.5,1079.5C -0.5,719.5 -0.5,359.5 -0.5,-0.5 Z"/></g>
<g><path style="opacity:1" fill="#691d6f" d="M 1072.5,281.5 C 1073.48,282.141 1074.48,282.807 1075.5,283.5C 1076.26,282.189 1077.26,281.689 1078.5,282C 1077.9,283.825 1077.23,285.659 1076.5,287.5C 1076.17,286.833 1075.83,286.167 1075.5,285.5C 1073.17,288.5 1071.5,288.167 1070.5,284.5C 1070.85,283.304 1071.35,283.304 1072,284.5C 1072.48,283.552 1072.65,282.552 1072.5,281.5 Z"/></g>
<g><path style="opacity:1" fill="#dd7c74" d="M 302.5,290.5 C 301.448,290.351 300.448,290.517 299.5,291C 298.349,293.2 296.682,294.7 294.5,295.5C 295.702,293.608 297.035,291.774 298.5,290C 300.066,289.235 301.399,289.402 302.5,290.5 Z"/></g>
<g><path style="opacity:1" fill="#fefdfd" d="M 302.5,290.5 C 306.554,295.221 310.887,299.554 315.5,303.5C 322.122,313.123 330.122,321.456 339.5,328.5C 340.259,330.436 341.259,332.269 342.5,334C 341.852,335.44 341.519,336.94 341.5,338.5C 334.921,343.243 329.088,348.91 324,355.5C 323.517,356.448 323.351,357.448 323.5,358.5C 321.834,360.187 320.5,362.187 319.5,364.5C 318.761,364.369 318.094,364.536 317.5,365C 312.414,369.707 308.747,375.207 306.5,381.5C 304.331,383.34 302.998,385.674 302.5,388.5C 297.958,392.913 294.958,398.247 293.5,404.5C 293.5,404.833 293.5,405.167 293.5,405.5C 290.909,406.254 289.076,407.921 288,410.5C 285.686,415.14 284.019,420.14 283,425.5C 280.169,427.838 279.003,430.838 279.5,434.5C 279.5,434.833 279.5,435.167 279.5,435.5C 278.504,435.414 277.671,435.748 277,436.5C 276.174,439.793 275.674,443.126 275.5,446.5C 275.573,448.027 274.906,449.027 273.5,449.5C 271.369,453.999 269.536,458.666 268,463.5C 267.506,465.134 267.34,466.801 267.5,468.5C 267.562,473.076 266.895,477.409 265.5,481.5C 264.21,482.058 263.377,483.058 263,484.5C 262.5,491.826 262.334,499.159 262.5,506.5C 261.351,506.791 260.684,507.624 260.5,509C 258.992,517.759 258.326,526.592 258.5,535.5C 258.504,541.872 259.171,547.872 260.5,553.5C 261.931,564.108 262.764,574.775 263,585.5C 264.461,588.679 265.295,592.012 265.5,595.5C 265.485,599.56 265.985,603.56 267,607.5C 267.377,608.942 268.21,609.942 269.5,610.5C 270.323,613.977 270.823,617.644 271,621.5C 271.278,622.416 271.778,623.082 272.5,623.5C 272.508,628.581 274.175,632.915 277.5,636.5C 277.5,636.833 277.5,637.167 277.5,637.5C 276.925,641.155 277.925,644.155 280.5,646.5C 282.713,648.958 283.879,651.958 284,655.5C 284.708,656.381 285.542,657.047 286.5,657.5C 286.587,664.202 288.92,669.869 293.5,674.5C 294.458,674.953 295.292,675.619 296,676.5C 297.705,684.234 301.705,690.567 308,695.5C 309.71,700.9 312.71,705.567 317,709.5C 318.606,712.492 320.272,715.492 322,718.5C 327.444,722.777 331.944,727.777 335.5,733.5C 337.432,736.177 337.932,739.177 337,742.5C 331.974,748.357 326.807,754.023 321.5,759.5C 319.192,761.471 316.858,763.471 314.5,765.5C 311.176,768.106 307.843,770.773 304.5,773.5C 302.26,778.118 298.593,780.451 293.5,780.5C 288.068,773.861 281.901,767.861 275,762.5C 274.536,761.906 274.369,761.239 274.5,760.5C 272.73,758.887 271.564,756.887 271,754.5C 269.871,752.859 268.371,751.859 266.5,751.5C 265.581,748.911 263.914,746.911 261.5,745.5C 260.311,741.64 257.977,738.64 254.5,736.5C 250.951,730.469 247.117,724.469 243,718.5C 238.497,715.685 236.163,711.685 236,706.5C 229.968,698.633 225.468,689.966 222.5,680.5C 218.506,671.051 214.506,661.718 210.5,652.5C 208.461,651.089 207.461,649.089 207.5,646.5C 206.319,638.784 204.819,631.118 203,623.5C 202.292,622.619 201.458,621.953 200.5,621.5C 200.672,620.508 200.338,619.842 199.5,619.5C 199.221,613.895 198.221,608.562 196.5,603.5C 196.248,596.794 195.248,590.461 193.5,584.5C 191.501,557.883 191.001,531.216 192,504.5C 193.997,498.402 194.83,492.069 194.5,485.5C 195.765,484.486 196.431,482.986 196.5,481C 197.749,472.847 198.749,464.68 199.5,456.5C 201.997,452.667 203.33,448.333 203.5,443.5C 205.324,437.254 207.324,430.921 209.5,424.5C 210.857,422.814 212.19,421.148 213.5,419.5C 216.982,410.529 220.482,401.529 224,392.5C 226.845,389.805 228.345,386.471 228.5,382.5C 228.427,380.973 229.094,379.973 230.5,379.5C 233.722,375.413 236.722,371.08 239.5,366.5C 240.429,365.311 240.762,363.978 240.5,362.5C 241.522,358.434 243.522,355.101 246.5,352.5C 250.589,349.898 253.423,346.232 255,341.5C 266.033,327.312 277.533,313.645 289.5,300.5C 290.167,297.833 291.833,296.167 294.5,295.5C 296.682,294.7 298.349,293.2 299.5,291C 300.448,290.517 301.448,290.351 302.5,290.5 Z"/></g>
<g><path style="opacity:1" fill="#fefdfd" d="M 781.5,298.5 C 782.167,298.5 782.5,298.833 782.5,299.5C 783.389,301.736 784.722,303.736 786.5,305.5C 789.6,309.273 793.266,312.273 797.5,314.5C 799.094,317.764 801.427,320.431 804.5,322.5C 809.487,328.166 814.154,334.166 818.5,340.5C 819.845,342.697 821.011,345.03 822,347.5C 823.039,348.71 824.206,349.71 825.5,350.5C 826.08,352.749 827.413,354.415 829.5,355.5C 832.848,362.497 837.015,369.164 842,375.5C 842.608,377.154 843.108,378.821 843.5,380.5C 845.407,385.984 848.073,390.984 851.5,395.5C 851.656,398.646 852.989,401.146 855.5,403C 856.233,404.766 856.567,406.599 856.5,408.5C 857.72,412.403 859.387,416.07 861.5,419.5C 863.877,422.726 864.877,426.393 864.5,430.5C 866.431,434.552 867.598,438.885 868,443.5C 868.417,444.756 869.25,445.423 870.5,445.5C 871.228,450.451 871.728,455.451 872,460.5C 874.937,466.081 876.604,472.081 877,478.5C 877.383,479.056 877.883,479.389 878.5,479.5C 880.249,490.621 881.249,501.954 881.5,513.5C 882.833,532.167 882.833,550.833 881.5,569.5C 880.962,571.117 880.629,572.784 880.5,574.5C 879.076,585.677 877.409,597.011 875.5,608.5C 875.772,613.567 874.772,618.233 872.5,622.5C 871.504,622.414 870.671,622.748 870,623.5C 869.625,628.21 868.958,632.877 868,637.5C 865.58,641.837 864.08,646.504 863.5,651.5C 862.034,652.347 861.2,653.68 861,655.5C 861.484,660.196 859.817,663.863 856,666.5C 854.631,673.767 851.798,680.434 847.5,686.5C 846.954,688.135 846.62,689.801 846.5,691.5C 846.5,691.833 846.5,692.167 846.5,692.5C 845.504,692.414 844.671,692.748 844,693.5C 842.398,696.816 840.898,700.149 839.5,703.5C 834.149,715.184 827.483,726.184 819.5,736.5C 811.827,743.682 804.993,751.682 799,760.5C 790.297,768.702 782.13,777.369 774.5,786.5C 773.448,786.649 772.448,786.483 771.5,786C 760.272,774.604 748.938,763.437 737.5,752.5C 735.597,749.252 733.263,746.252 730.5,743.5C 739.592,733.085 748.259,722.418 756.5,711.5C 757.449,709.223 758.782,707.223 760.5,705.5C 762.493,703.533 764.493,701.533 766.5,699.5C 767.429,698.311 767.762,696.978 767.5,695.5C 767.5,695.167 767.5,694.833 767.5,694.5C 772.506,693.649 774.673,690.649 774,685.5C 776.082,682.368 778.248,679.368 780.5,676.5C 781.309,674.929 781.643,673.262 781.5,671.5C 782.781,668.84 784.115,666.173 785.5,663.5C 788.772,660.276 790.439,656.276 790.5,651.5C 790.5,651.167 790.5,650.833 790.5,650.5C 791.458,650.047 792.292,649.381 793,648.5C 794.996,645.092 796.163,641.425 796.5,637.5C 798.059,632.218 799.559,626.885 801,621.5C 801.383,620.944 801.883,620.611 802.5,620.5C 805.049,615.64 806.382,610.307 806.5,604.5C 807.977,597.302 809.643,589.968 811.5,582.5C 811.198,579.941 811.532,577.607 812.5,575.5C 813.663,552.004 813.83,528.337 813,504.5C 812.454,501.621 811.621,498.954 810.5,496.5C 811.132,488.47 809.966,480.803 807,473.5C 806.869,468.306 805.869,463.306 804,458.5C 802.961,457.29 801.794,456.29 800.5,455.5C 800.663,453.143 800.497,450.81 800,448.5C 798.105,443.201 796.272,437.867 794.5,432.5C 793.207,427.247 790.873,422.58 787.5,418.5C 787.975,415.687 786.975,413.687 784.5,412.5C 783.273,408.382 781.773,404.382 780,400.5C 779.34,398.676 778.173,397.343 776.5,396.5C 773.251,392.341 770.751,387.674 769,382.5C 765.143,379.651 762.477,375.985 761,371.5C 754.636,362.981 748.136,354.647 741.5,346.5C 739.949,343.437 737.782,340.771 735,338.5C 734.387,336.505 734.887,334.838 736.5,333.5C 741.915,328.752 746.915,323.752 751.5,318.5C 754.352,318.064 756.019,316.397 756.5,313.5C 758.086,312.852 759.753,312.352 761.5,312C 765.772,306.725 770.438,301.725 775.5,297C 777.689,296.678 779.689,297.178 781.5,298.5 Z"/></g>
<g><path style="opacity:1" fill="#e69a93" d="M 781.5,298.5 C 779.689,297.178 777.689,296.678 775.5,297C 770.438,301.725 765.772,306.725 761.5,312C 759.753,312.352 758.086,312.852 756.5,313.5C 762.864,307.64 769.197,301.473 775.5,295C 778.304,294.613 780.304,295.779 781.5,298.5 Z"/></g>
<g><path style="opacity:1" fill="#ecb1ac" d="M 782.5,299.5 C 787.833,304.167 792.833,309.167 797.5,314.5C 793.266,312.273 789.6,309.273 786.5,305.5C 784.722,303.736 783.389,301.736 782.5,299.5 Z"/></g>
<g><path style="opacity:1" fill="#e8a19b" d="M 315.5,303.5 C 323.371,311.709 331.371,320.042 339.5,328.5C 330.122,321.456 322.122,313.123 315.5,303.5 Z"/></g>
<g><path style="opacity:1" fill="#e1877e" d="M 756.5,313.5 C 756.019,316.397 754.352,318.064 751.5,318.5C 752.882,316.451 754.548,314.785 756.5,313.5 Z"/></g>
<g><path style="opacity:1" fill="#e38f88" d="M 797.5,314.5 C 800.573,316.569 802.906,319.236 804.5,322.5C 801.427,320.431 799.094,317.764 797.5,314.5 Z"/></g>
<g><path style="opacity:1" fill="#e79c95" d="M 289.5,300.5 C 277.533,313.645 266.033,327.312 255,341.5C 253.423,346.232 250.589,349.898 246.5,352.5C 248.042,348.614 250.042,344.948 252.5,341.5C 257.882,336.609 262.382,330.942 266,324.5C 272.057,317.782 278.057,311.115 284,304.5C 285.432,302.561 287.265,301.228 289.5,300.5 Z"/></g>
<g><path style="opacity:1" fill="#e1877f" d="M 751.5,318.5 C 746.915,323.752 741.915,328.752 736.5,333.5C 736.369,332.761 736.536,332.094 737,331.5C 741.696,326.781 746.529,322.448 751.5,318.5 Z"/></g>
<g><path style="opacity:1" fill="#de7c73" d="M 339.5,328.5 C 343.842,331.228 344.508,334.562 341.5,338.5C 341.519,336.94 341.852,335.44 342.5,334C 341.259,332.269 340.259,330.436 339.5,328.5 Z"/></g>
<g><path style="opacity:1" fill="#e9a5a0" d="M 736.5,333.5 C 734.887,334.838 734.387,336.505 735,338.5C 737.782,340.771 739.949,343.437 741.5,346.5C 738.536,344.038 735.703,341.371 733,338.5C 732.36,335.632 733.527,333.965 736.5,333.5 Z"/></g>
<g><path style="opacity:1" fill="#e4958f" d="M 818.5,340.5 C 819.794,341.29 820.961,342.29 822,343.5C 822.989,345.97 824.155,348.303 825.5,350.5C 824.206,349.71 823.039,348.71 822,347.5C 821.011,345.03 819.845,342.697 818.5,340.5 Z"/></g>
<g><path style="opacity:1" fill="#e0867f" d="M 341.5,338.5 C 335.13,344.868 329.13,351.535 323.5,358.5C 323.351,357.448 323.517,356.448 324,355.5C 329.088,348.91 334.921,343.243 341.5,338.5 Z"/></g>
<g><path style="opacity:1" fill="#e3918a" d="M 825.5,350.5 C 827.587,351.585 828.92,353.251 829.5,355.5C 827.413,354.415 826.08,352.749 825.5,350.5 Z"/></g>
<g><path style="opacity:1" fill="#e38e87" d="M 319.5,364.5 C 314.752,369.906 310.419,375.573 306.5,381.5C 308.747,375.207 312.414,369.707 317.5,365C 318.094,364.536 318.761,364.369 319.5,364.5 Z"/></g>
<g><path style="opacity:1" fill="#e8a09a" d="M 240.5,362.5 C 240.762,363.978 240.429,365.311 239.5,366.5C 236.722,371.08 233.722,375.413 230.5,379.5C 231.657,375.779 233.157,372.113 235,368.5C 237.068,366.604 238.901,364.604 240.5,362.5 Z"/></g>
<g><path style="opacity:1" fill="#e59891" d="M 395.5,385.5 C 393.122,383.959 390.622,382.625 388,381.5C 385.458,382.205 383.292,383.539 381.5,385.5C 386.02,377.551 390.687,377.551 395.5,385.5 Z"/></g>
<g><path style="opacity:1" fill="#fefcfc" d="M 395.5,385.5 C 397.671,387.5 400.004,389.334 402.5,391C 411.343,400.01 420.01,409.176 428.5,418.5C 430.333,420.496 430.833,422.829 430,425.5C 422.682,431.29 417.182,438.29 413.5,446.5C 413.5,446.833 413.5,447.167 413.5,447.5C 410.351,448.16 408.851,450.16 409,453.5C 406.259,455.067 405.092,457.401 405.5,460.5C 389.956,487.714 382.956,517.381 384.5,549.5C 384.734,564.111 387.4,578.111 392.5,591.5C 394.326,596.484 396.659,601.151 399.5,605.5C 399.5,607.167 399.5,608.833 399.5,610.5C 401.544,613.231 403.211,616.231 404.5,619.5C 404.957,620.298 405.624,620.631 406.5,620.5C 406.736,623.621 408.069,625.954 410.5,627.5C 414.397,632.279 418.064,637.279 421.5,642.5C 423.051,645.563 425.218,648.229 428,650.5C 428.49,651.793 428.657,653.127 428.5,654.5C 428.167,654.5 427.833,654.5 427.5,654.5C 426.5,654.5 425.5,654.5 424.5,654.5C 424.649,655.552 424.483,656.552 424,657.5C 413.476,667.854 403.309,678.187 393.5,688.5C 391.772,690.226 389.772,691.559 387.5,692.5C 384.121,692.485 381.121,691.485 378.5,689.5C 375.471,687.628 373.305,684.961 372,681.5C 371.329,680.748 370.496,680.414 369.5,680.5C 365.885,675.045 362.052,669.712 358,664.5C 357.184,663.177 356.017,662.511 354.5,662.5C 352.898,658.905 350.898,655.571 348.5,652.5C 347.767,648.199 345.601,644.865 342,642.5C 341.246,639.316 339.746,636.649 337.5,634.5C 337.834,631.509 336.834,629.176 334.5,627.5C 332.713,622.085 330.379,617.085 327.5,612.5C 325.544,608.138 324.544,603.471 324.5,598.5C 321.937,589.566 319.77,580.566 318,571.5C 316.634,551.528 316.134,531.528 316.5,511.5C 317.081,506.162 318.248,500.829 320,495.5C 320.498,492.183 320.665,488.85 320.5,485.5C 322.136,483 323.636,480.334 325,477.5C 326.327,472.051 327.827,466.718 329.5,461.5C 330.948,457.14 332.615,452.807 334.5,448.5C 335.458,448.047 336.292,447.381 337,446.5C 337.889,443.324 339.055,440.324 340.5,437.5C 341.887,434.947 343.72,432.614 346,430.5C 346.751,426.734 348.751,423.734 352,421.5C 352.49,420.207 352.657,418.873 352.5,417.5C 359.804,409.192 367.138,400.859 374.5,392.5C 375.833,389.167 378.167,386.833 381.5,385.5C 383.292,383.539 385.458,382.205 388,381.5C 390.622,382.625 393.122,383.959 395.5,385.5 Z"/></g>
<g><path style="opacity:1" fill="#db7066" d="M 692.5,385.5 C 689.5,382.833 686.5,382.833 683.5,385.5C 684.952,381.298 687.619,380.464 691.5,383C 692.252,383.671 692.586,384.504 692.5,385.5 Z"/></g>
<g><path style="opacity:1" fill="#fefdfd" d="M 692.5,385.5 C 699.131,392.632 705.964,399.632 713,406.5C 713.219,407.938 713.719,409.271 714.5,410.5C 717.563,413.558 720.23,416.892 722.5,420.5C 722.343,421.873 722.51,423.207 723,424.5C 724.954,428.281 727.454,431.614 730.5,434.5C 733.773,436.524 735.44,439.524 735.5,443.5C 735.771,449.066 738.105,453.399 742.5,456.5C 743.363,458.421 744.029,460.421 744.5,462.5C 745.129,465.397 746.129,468.064 747.5,470.5C 747.273,473.438 748.273,475.771 750.5,477.5C 749.911,481.971 750.577,485.971 752.5,489.5C 753.88,489.962 754.547,490.962 754.5,492.5C 755.302,495.449 755.636,498.449 755.5,501.5C 755.5,504.5 755.5,507.5 755.5,510.5C 757.789,529.763 758.122,549.096 756.5,568.5C 755.306,579.945 753.14,591.278 750,602.5C 747.997,605.703 746.497,609.036 745.5,612.5C 744.792,614.378 743.626,616.045 742,617.5C 742.484,622.196 740.817,625.863 737,628.5C 736.51,629.793 736.343,631.127 736.5,632.5C 736.509,634.308 736.009,635.975 735,637.5C 731.426,641.328 728.926,645.661 727.5,650.5C 724.188,651.086 722.354,653.086 722,656.5C 718.946,658.366 717.446,661.033 717.5,664.5C 714.799,666.215 712.299,668.215 710,670.5C 709.51,671.793 709.343,673.127 709.5,674.5C 706.585,674.913 704.752,676.579 704,679.5C 698.29,685.545 692.29,691.212 686,696.5C 680.952,691.946 675.786,687.613 670.5,683.5C 663.452,677.119 656.785,670.452 650.5,663.5C 647.011,660.175 645.177,656.175 645,651.5C 656.4,638.971 665.9,625.304 673.5,610.5C 675.196,605.271 676.696,599.938 678,594.5C 678.708,593.619 679.542,592.953 680.5,592.5C 681.558,591.4 682.392,590.066 683,588.5C 683.185,584.325 684.019,580.325 685.5,576.5C 690.044,560.39 691.544,543.723 690,526.5C 689.819,523.305 689.319,520.305 688.5,517.5C 687.833,513.833 687.167,510.167 686.5,506.5C 686.672,505.508 686.338,504.842 685.5,504.5C 684.908,494.282 682.241,484.782 677.5,476C 676.437,472.847 675.437,469.68 674.5,466.5C 673.293,464.335 671.96,462.335 670.5,460.5C 669.206,459.71 668.039,458.71 667,457.5C 666.867,454.596 665.7,452.262 663.5,450.5C 662.698,446.708 661.031,443.375 658.5,440.5C 654.51,436.341 650.676,432.007 647,427.5C 646.333,426.167 646.333,424.833 647,423.5C 659.055,410.614 671.222,397.947 683.5,385.5C 686.5,382.833 689.5,382.833 692.5,385.5 Z"/></g>
<g><path style="opacity:1" fill="#e4958e" d="M 843.5,380.5 C 846.483,383.788 848.983,387.454 851,391.5C 851.49,392.793 851.657,394.127 851.5,395.5C 848.073,390.984 845.407,385.984 843.5,380.5 Z"/></g>
<g><path style="opacity:1" fill="#e18b83" d="M 302.5,388.5 C 299.497,393.841 296.497,399.175 293.5,404.5C 294.958,398.247 297.958,392.913 302.5,388.5 Z"/></g>
<g><path style="opacity:1" fill="#e79c96" d="M 683.5,385.5 C 671.222,397.947 659.055,410.614 647,423.5C 646.333,424.833 646.333,426.167 647,427.5C 650.676,432.007 654.51,436.341 658.5,440.5C 661.031,443.375 662.698,446.708 663.5,450.5C 657.853,442.613 651.687,434.946 645,427.5C 644.333,425.5 644.333,423.5 645,421.5C 657.703,409.295 670.536,397.295 683.5,385.5 Z"/></g>
<g><path style="opacity:1" fill="#dc7166" d="M 776.5,396.5 C 778.173,397.343 779.34,398.676 780,400.5C 781.773,404.382 783.273,408.382 784.5,412.5C 782.581,409.958 780.748,407.291 779,404.5C 778.725,401.588 777.891,398.921 776.5,396.5 Z"/></g>
<g><path style="opacity:1" fill="#eaa59f" d="M 228.5,382.5 C 228.345,386.471 226.845,389.805 224,392.5C 220.482,401.529 216.982,410.529 213.5,419.5C 213.674,412.462 215.841,406.128 220,400.5C 221.75,394.683 223.75,389.016 226,383.5C 226.671,382.748 227.504,382.414 228.5,382.5 Z"/></g>
<g><path style="opacity:1" fill="#e28e87" d="M 374.5,392.5 C 367.138,400.859 359.804,409.192 352.5,417.5C 358.174,408.646 364.841,400.479 372.5,393C 373.094,392.536 373.761,392.369 374.5,392.5 Z"/></g>
<g><path style="opacity:1" fill="#e1857b" d="M 293.5,405.5 C 291.165,409.509 288.832,413.509 286.5,417.5C 285.833,420.5 285.167,423.5 284.5,426.5C 282.835,429.284 281.169,431.951 279.5,434.5C 279.003,430.838 280.169,427.838 283,425.5C 284.019,420.14 285.686,415.14 288,410.5C 289.076,407.921 290.909,406.254 293.5,405.5 Z"/></g>
<g><path style="opacity:1" fill="#df7e76" d="M 856.5,408.5 C 860.06,411.133 861.727,414.799 861.5,419.5C 859.387,416.07 857.72,412.403 856.5,408.5 Z"/></g>
<g><path style="opacity:1" fill="#ecaea9" d="M 722.5,420.5 C 725.013,422.533 726.513,425.199 727,428.5C 729.91,429.45 731.077,431.45 730.5,434.5C 727.454,431.614 724.954,428.281 723,424.5C 722.51,423.207 722.343,421.873 722.5,420.5 Z"/></g>
<g><path style="opacity:1" fill="#eba8a1" d="M 787.5,418.5 C 790.873,422.58 793.207,427.247 794.5,432.5C 792.617,429.09 790.45,425.757 788,422.5C 787.51,421.207 787.343,419.873 787.5,418.5 Z"/></g>
<g><path style="opacity:1" fill="#e28a82" d="M 352.5,417.5 C 352.657,418.873 352.49,420.207 352,421.5C 348.751,423.734 346.751,426.734 346,430.5C 343.72,432.614 341.887,434.947 340.5,437.5C 342.117,433.389 343.95,429.389 346,425.5C 348.425,422.947 350.592,420.28 352.5,417.5 Z"/></g>
<g><path style="opacity:1" fill="#e79d97" d="M 864.5,430.5 C 866.173,431.343 867.34,432.676 868,434.5C 869.049,438.133 869.882,441.799 870.5,445.5C 869.25,445.423 868.417,444.756 868,443.5C 867.598,438.885 866.431,434.552 864.5,430.5 Z"/></g>
<g><path style="opacity:1" fill="#e28c84" d="M 428.5,418.5 C 432.702,419.952 433.536,422.619 431,426.5C 424.182,432.473 418.348,439.14 413.5,446.5C 417.182,438.29 422.682,431.29 430,425.5C 430.833,422.829 430.333,420.496 428.5,418.5 Z"/></g>
<g><path style="opacity:1" fill="#de7c74" d="M 340.5,437.5 C 339.055,440.324 337.889,443.324 337,446.5C 336.292,447.381 335.458,448.047 334.5,448.5C 335.945,445.676 337.111,442.676 338,439.5C 338.708,438.619 339.542,437.953 340.5,437.5 Z"/></g>
<g><path style="opacity:1" fill="#dc7368" d="M 279.5,435.5 C 277.86,438.528 277.026,441.861 277,445.5C 276.617,446.056 276.117,446.389 275.5,446.5C 275.674,443.126 276.174,439.793 277,436.5C 277.671,435.748 278.504,435.414 279.5,435.5 Z"/></g>
<g><path style="opacity:1" fill="#db736a" d="M 203.5,443.5 C 203.33,448.333 201.997,452.667 199.5,456.5C 200.438,452.02 201.772,447.687 203.5,443.5 Z"/></g>
<g><path style="opacity:1" fill="#e4928b" d="M 870.5,445.5 C 871.79,446.058 872.623,447.058 873,448.5C 873.333,452.833 873.667,457.167 874,461.5C 875.299,462.09 876.132,463.09 876.5,464.5C 877.711,469.433 878.378,474.433 878.5,479.5C 877.883,479.389 877.383,479.056 877,478.5C 876.604,472.081 874.937,466.081 872,460.5C 871.728,455.451 871.228,450.451 870.5,445.5 Z"/></g>
<g><path style="opacity:1" fill="#ecafa9" d="M 735.5,443.5 C 736.15,443.804 736.817,444.137 737.5,444.5C 739.143,448.488 740.81,452.488 742.5,456.5C 738.105,453.399 735.771,449.066 735.5,443.5 Z"/></g>
<g><path style="opacity:1" fill="#d76459" d="M 413.5,447.5 C 411.556,452.312 408.889,456.645 405.5,460.5C 405.092,457.401 406.259,455.067 409,453.5C 408.851,450.16 410.351,448.16 413.5,447.5 Z"/></g>
<g><path style="opacity:1" fill="#e9a49e" d="M 273.5,449.5 C 273.219,453.188 272.719,456.855 272,460.5C 269.758,462.87 268.258,465.536 267.5,468.5C 267.34,466.801 267.506,465.134 268,463.5C 269.536,458.666 271.369,453.999 273.5,449.5 Z"/></g>
<g><path style="opacity:1" fill="#fefefe" d="M 555.5,462.5 C 556.5,462.833 557.167,463.5 557.5,464.5C 559.877,465.887 562.543,466.721 565.5,467C 569.144,469.594 572.811,472.094 576.5,474.5C 584.445,484.113 593.111,493.113 602.5,501.5C 602.858,503.701 604.192,505.035 606.5,505.5C 608.43,511.659 611.097,517.326 614.5,522.5C 615.925,534.252 615.592,545.919 613.5,557.5C 610.245,560.332 608.578,563.999 608.5,568.5C 607.833,569.167 607.167,569.833 606.5,570.5C 598.903,579.434 590.903,588.101 582.5,596.5C 581.833,596.5 581.5,596.833 581.5,597.5C 580.504,597.414 579.671,597.748 579,598.5C 577.813,683.497 576.98,768.497 576.5,853.5C 576.5,856.167 576.5,858.833 576.5,861.5C 575.669,874.994 575.169,888.661 575,902.5C 574.5,961.499 574.333,1020.5 574.5,1079.5C 546.5,1079.5 518.5,1079.5 490.5,1079.5C 490.5,1025.83 490.5,972.167 490.5,918.5C 490.5,909.5 490.5,900.5 490.5,891.5C 492.117,798.671 493.117,705.671 493.5,612.5C 492.911,607.519 492.411,602.519 492,597.5C 485.631,591.298 479.464,584.965 473.5,578.5C 472.243,575.573 470.243,573.239 467.5,571.5C 466.525,567.223 464.525,563.557 461.5,560.5C 460.932,555.363 460.266,550.363 459.5,545.5C 458.234,543.105 457.568,540.438 457.5,537.5C 457.966,534.508 458.299,531.508 458.5,528.5C 459.117,528.389 459.617,528.056 460,527.5C 460.333,524.167 460.667,520.833 461,517.5C 465.416,509.68 470.582,502.347 476.5,495.5C 476.5,494.833 476.833,494.5 477.5,494.5C 486.421,486.918 495.088,478.918 503.5,470.5C 507.132,468.841 510.465,466.841 513.5,464.5C 516.022,464.872 518.022,464.039 519.5,462C 531.513,461.389 543.513,461.556 555.5,462.5 Z"/></g>
<g><path style="opacity:1" fill="#ebaca7" d="M 555.5,462.5 C 543.513,461.556 531.513,461.389 519.5,462C 518.022,464.039 516.022,464.872 513.5,464.5C 514.903,463.069 516.569,461.902 518.5,461C 529.318,459.371 540.151,459.204 551,460.5C 552.986,460.569 554.486,461.235 555.5,462.5 Z"/></g>
<g><path style="opacity:1" fill="#e28d87" d="M 744.5,462.5 C 746.655,464.617 747.655,467.284 747.5,470.5C 746.129,468.064 745.129,465.397 744.5,462.5 Z"/></g>
<g><path style="opacity:1" fill="#e8a29b" d="M 800.5,455.5 C 801.794,456.29 802.961,457.29 804,458.5C 805.869,463.306 806.869,468.306 807,473.5C 809.966,480.803 811.132,488.47 810.5,496.5C 809.022,490.363 807.856,484.029 807,477.5C 805.336,469.969 803.169,462.635 800.5,455.5 Z"/></g>
<g><path style="opacity:1" fill="#e38b81" d="M 557.5,464.5 C 560.649,464.211 563.649,464.711 566.5,466C 570.589,467.921 573.923,470.754 576.5,474.5C 572.811,472.094 569.144,469.594 565.5,467C 562.543,466.721 559.877,465.887 557.5,464.5 Z"/></g>
<g><path style="opacity:1" fill="#e4928a" d="M 329.5,461.5 C 327.827,466.718 326.327,472.051 325,477.5C 323.636,480.334 322.136,483 320.5,485.5C 322.449,480.04 323.949,474.374 325,468.5C 326.788,466.24 328.288,463.907 329.5,461.5 Z"/></g>
<g><path style="opacity:1" fill="#ebaba5" d="M 199.5,456.5 C 198.749,464.68 197.749,472.847 196.5,481C 196.431,482.986 195.765,484.486 194.5,485.5C 194.503,475.384 196.17,465.717 199.5,456.5 Z"/></g>
<g><path style="opacity:1" fill="#e39089" d="M 576.5,474.5 C 585.889,482.887 594.555,491.887 602.5,501.5C 593.111,493.113 584.445,484.113 576.5,474.5 Z"/></g>
<g><path style="opacity:1" fill="#e8a29c" d="M 513.5,464.5 C 510.465,466.841 507.132,468.841 503.5,470.5C 495.088,478.918 486.421,486.918 477.5,494.5C 487.025,483.477 497.691,473.644 509.5,465C 510.793,464.51 512.127,464.343 513.5,464.5 Z"/></g>
<g><path style="opacity:1" fill="#f0beba" d="M 670.5,460.5 C 671.96,462.335 673.293,464.335 674.5,466.5C 675.437,469.68 676.437,472.847 677.5,476C 682.241,484.782 684.908,494.282 685.5,504.5C 684.883,504.389 684.383,504.056 684,503.5C 683.798,498.011 682.798,492.678 681,487.5C 678.667,481.5 676.333,475.5 674,469.5C 673.385,467.884 672.385,466.551 671,465.5C 670.506,463.866 670.34,462.199 670.5,460.5 Z"/></g>
<g><path style="opacity:1" fill="#ebafaa" d="M 750.5,477.5 C 751.482,481.316 752.149,485.316 752.5,489.5C 750.577,485.971 749.911,481.971 750.5,477.5 Z"/></g>
<g><path style="opacity:1" fill="#e2928c" d="M 265.5,481.5 C 264.005,489.88 263.005,498.213 262.5,506.5C 262.334,499.159 262.5,491.826 263,484.5C 263.377,483.058 264.21,482.058 265.5,481.5 Z"/></g>
<g><path style="opacity:1" fill="#d4574a" d="M 320.5,485.5 C 320.665,488.85 320.498,492.183 320,495.5C 318.248,500.829 317.081,506.162 316.5,511.5C 316.167,511.5 315.833,511.5 315.5,511.5C 315.177,507.774 315.511,504.107 316.5,500.5C 317.58,495.197 318.913,490.197 320.5,485.5 Z"/></g>
<g><path style="opacity:1" fill="#df8178" d="M 476.5,495.5 C 470.582,502.347 465.416,509.68 461,517.5C 460.667,520.833 460.333,524.167 460,527.5C 459.617,528.056 459.117,528.389 458.5,528.5C 458.335,524.818 458.501,521.152 459,517.5C 463.333,509.818 468.5,502.651 474.5,496C 475.094,495.536 475.761,495.369 476.5,495.5 Z"/></g>
<g><path style="opacity:1" fill="#eaa9a4" d="M 194.5,485.5 C 194.83,492.069 193.997,498.402 192,504.5C 191.001,531.216 191.501,557.883 193.5,584.5C 192.662,579.214 191.495,573.881 190,568.5C 189.333,546.833 189.333,525.167 190,503.5C 191.83,497.515 193.33,491.515 194.5,485.5 Z"/></g>
<g><path style="opacity:1" fill="#de837c" d="M 755.5,501.5 C 756.181,506.15 757.347,510.816 759,515.5C 759.828,531.339 759.661,547.005 758.5,562.5C 758.667,547.163 758.5,531.83 758,516.5C 757.434,514.277 756.6,512.277 755.5,510.5C 755.5,507.5 755.5,504.5 755.5,501.5 Z"/></g>
<g><path style="opacity:1" fill="#eaa6a1" d="M 262.5,506.5 C 260.73,522.102 260.064,537.769 260.5,553.5C 259.171,547.872 258.504,541.872 258.5,535.5C 258.326,526.592 258.992,517.759 260.5,509C 260.684,507.624 261.351,506.791 262.5,506.5 Z"/></g>
<g><path style="opacity:1" fill="#f5d5d2" d="M 688.5,517.5 C 689.319,520.305 689.819,523.305 690,526.5C 691.544,543.723 690.044,560.39 685.5,576.5C 686.167,568.167 686.833,559.833 687.5,551.5C 688.495,540.346 688.828,529.012 688.5,517.5 Z"/></g>
<g><path style="opacity:1" fill="#d96c64" d="M 686.5,506.5 C 687.167,510.167 687.833,513.833 688.5,517.5C 688.828,529.012 688.495,540.346 687.5,551.5C 687.3,536.496 686.967,521.496 686.5,506.5 Z"/></g>
<g><path style="opacity:1" fill="#f2c7c3" d="M 881.5,513.5 C 882.222,513.918 882.722,514.584 883,515.5C 884.979,533.165 884.979,550.832 883,568.5C 882.617,569.056 882.117,569.389 881.5,569.5C 882.833,550.833 882.833,532.167 881.5,513.5 Z"/></g>
<g><path style="opacity:1" fill="#e8a29d" d="M 315.5,511.5 C 315.833,511.5 316.167,511.5 316.5,511.5C 316.134,531.528 316.634,551.528 318,571.5C 319.77,580.566 321.937,589.566 324.5,598.5C 322.388,594.344 320.555,590.011 319,585.5C 318.635,580.623 317.635,575.957 316,571.5C 315.5,551.503 315.333,531.503 315.5,511.5 Z"/></g>
<g><path style="opacity:1" fill="#f0c2be" d="M 755.5,510.5 C 756.6,512.277 757.434,514.277 758,516.5C 758.5,531.83 758.667,547.163 758.5,562.5C 758.946,565.01 758.28,567.01 756.5,568.5C 758.122,549.096 757.789,529.763 755.5,510.5 Z"/></g>
<g><path style="opacity:1" fill="#e8a5a0" d="M 459.5,545.5 C 460.266,550.363 460.932,555.363 461.5,560.5C 460.883,560.389 460.383,560.056 460,559.5C 459.501,554.845 459.334,550.179 459.5,545.5 Z"/></g>
<g><path style="opacity:1" fill="#d35446" d="M 614.5,522.5 C 615.117,522.611 615.617,522.944 616,523.5C 617.516,533.866 617.516,544.199 616,554.5C 615.623,555.942 614.79,556.942 613.5,557.5C 615.592,545.919 615.925,534.252 614.5,522.5 Z"/></g>
<g><path style="opacity:1" fill="#e79f99" d="M 384.5,549.5 C 387.058,563.472 389.725,577.472 392.5,591.5C 387.4,578.111 384.734,564.111 384.5,549.5 Z"/></g>
<g><path style="opacity:1" fill="#dc7063" d="M 613.5,557.5 C 612.504,560.821 611.504,564.155 610.5,567.5C 609.817,567.863 609.15,568.196 608.5,568.5C 608.578,563.999 610.245,560.332 613.5,557.5 Z"/></g>
<g><path style="opacity:1" fill="#e59b96" d="M 810.5,496.5 C 811.621,498.954 812.454,501.621 813,504.5C 813.83,528.337 813.663,552.004 812.5,575.5C 812.667,552.164 812.5,528.831 812,505.5C 811.047,502.568 810.547,499.568 810.5,496.5 Z"/></g>
<g><path style="opacity:1" fill="#db6d61" d="M 461.5,560.5 C 464.525,563.557 466.525,567.223 467.5,571.5C 463.333,569.136 461.333,565.47 461.5,560.5 Z"/></g>
<g><path style="opacity:1" fill="#dc756c" d="M 467.5,571.5 C 470.243,573.239 472.243,575.573 473.5,578.5C 470.757,576.761 468.757,574.427 467.5,571.5 Z"/></g>
<g><path style="opacity:1" fill="#eba9a2" d="M 193.5,584.5 C 195.248,590.461 196.248,596.794 196.5,603.5C 195.883,603.389 195.383,603.056 195,602.5C 194.169,596.523 193.669,590.523 193.5,584.5 Z"/></g>
<g><path style="opacity:1" fill="#ebaea9" d="M 685.5,576.5 C 684.019,580.325 683.185,584.325 683,588.5C 682.392,590.066 681.558,591.4 680.5,592.5C 681.821,587.942 682.654,583.276 683,578.5C 683.417,577.244 684.25,576.577 685.5,576.5 Z"/></g>
<g><path style="opacity:1" fill="#da6c61" d="M 606.5,570.5 C 600.309,580.696 592.309,589.363 582.5,596.5C 590.903,588.101 598.903,579.434 606.5,570.5 Z"/></g>
<g><path style="opacity:1" fill="#e5968f" d="M 880.5,574.5 C 880.682,583.87 880.182,593.204 879,602.5C 877.25,604.257 876.084,606.257 875.5,608.5C 877.409,597.011 879.076,585.677 880.5,574.5 Z"/></g>
<g><path style="opacity:1" fill="#dd7467" d="M 392.5,591.5 C 396.574,595.256 398.907,599.922 399.5,605.5C 396.659,601.151 394.326,596.484 392.5,591.5 Z"/></g>
<g><path style="opacity:1" fill="#e9a39d" d="M 811.5,582.5 C 809.643,589.968 807.977,597.302 806.5,604.5C 806.506,599.785 807.006,595.118 808,590.5C 808.578,587.428 809.745,584.761 811.5,582.5 Z"/></g>
<g><path style="opacity:1" fill="#e0847c" d="M 265.5,595.5 C 267.566,600.129 268.899,605.129 269.5,610.5C 268.21,609.942 267.377,608.942 267,607.5C 265.985,603.56 265.485,599.56 265.5,595.5 Z"/></g>
<g><path style="opacity:1" fill="#ecafa9" d="M 806.5,604.5 C 806.382,610.307 805.049,615.64 802.5,620.5C 802.207,614.595 803.54,609.262 806.5,604.5 Z"/></g>
<g><path style="opacity:1" fill="#d66156" d="M 327.5,612.5 C 330.379,617.085 332.713,622.085 334.5,627.5C 333.624,627.631 332.957,627.298 332.5,626.5C 331.658,623.123 330.158,620.123 328,617.5C 327.506,615.866 327.34,614.199 327.5,612.5 Z"/></g>
<g><path style="opacity:1" fill="#e9a59f" d="M 399.5,610.5 C 403.307,612.775 405.641,616.108 406.5,620.5C 405.624,620.631 404.957,620.298 404.5,619.5C 403.211,616.231 401.544,613.231 399.5,610.5 Z"/></g>
<g><path style="opacity:1" fill="#db7369" d="M 196.5,603.5 C 198.221,608.562 199.221,613.895 199.5,619.5C 198.883,619.389 198.383,619.056 198,618.5C 197.499,613.492 196.999,608.492 196.5,603.5 Z"/></g>
<g><path style="opacity:1" fill="#d45749" d="M 745.5,612.5 C 744.165,616.305 743.332,620.305 743,624.5C 740.183,626.799 738.017,629.465 736.5,632.5C 736.343,631.127 736.51,629.793 737,628.5C 740.817,625.863 742.484,622.196 742,617.5C 743.626,616.045 744.792,614.378 745.5,612.5 Z"/></g>
<g><path style="opacity:1" fill="#e4938c" d="M 406.5,620.5 C 408.588,622.336 409.921,624.669 410.5,627.5C 408.069,625.954 406.736,623.621 406.5,620.5 Z"/></g>
<g><path style="opacity:1" fill="#ecaea9" d="M 200.5,621.5 C 201.458,621.953 202.292,622.619 203,623.5C 204.819,631.118 206.319,638.784 207.5,646.5C 206.437,642.407 204.937,638.407 203,634.5C 202.582,630.067 201.749,625.734 200.5,621.5 Z"/></g>
<g><path style="opacity:1" fill="#df7e75" d="M 272.5,623.5 C 273.151,624.091 273.818,624.757 274.5,625.5C 275.227,629.322 276.227,632.989 277.5,636.5C 274.175,632.915 272.508,628.581 272.5,623.5 Z"/></g>
<g><path style="opacity:1" fill="#df7e75" d="M 334.5,627.5 C 336.834,629.176 337.834,631.509 337.5,634.5C 335.759,632.605 334.759,630.272 334.5,627.5 Z"/></g>
<g><path style="opacity:1" fill="#eaa8a3" d="M 872.5,622.5 C 871.598,631.44 869.432,640.106 866,648.5C 865.623,649.942 864.79,650.942 863.5,651.5C 864.08,646.504 865.58,641.837 868,637.5C 868.958,632.877 869.625,628.21 870,623.5C 870.671,622.748 871.504,622.414 872.5,622.5 Z"/></g>
<g><path style="opacity:1" fill="#e69790" d="M 673.5,610.5 C 665.9,625.304 656.4,638.971 645,651.5C 645.177,656.175 647.011,660.175 650.5,663.5C 648.629,663.141 647.129,662.141 646,660.5C 645.283,657.785 643.783,655.618 641.5,654C 641.667,653.5 641.833,653 642,652.5C 653.391,641.117 662.391,628.117 669,613.5C 670.129,611.859 671.629,610.859 673.5,610.5 Z"/></g>
<g><path style="opacity:1" fill="#d86558" d="M 337.5,634.5 C 339.746,636.649 341.246,639.316 342,642.5C 345.601,644.865 347.767,648.199 348.5,652.5C 346.238,648.355 343.238,644.689 339.5,641.5C 338.579,639.223 337.913,636.89 337.5,634.5 Z"/></g>
<g><path style="opacity:1" fill="#e0877f" d="M 421.5,642.5 C 424.13,644.628 426.63,646.961 429,649.5C 429.78,651.387 429.613,653.054 428.5,654.5C 428.657,653.127 428.49,651.793 428,650.5C 425.218,648.229 423.051,645.563 421.5,642.5 Z"/></g>
<g><path style="opacity:1" fill="#df8078" d="M 277.5,637.5 C 278.117,637.611 278.617,637.944 279,638.5C 279.395,641.207 279.895,643.873 280.5,646.5C 277.925,644.155 276.925,641.155 277.5,637.5 Z"/></g>
<g><path style="opacity:1" fill="#e38f87" d="M 796.5,637.5 C 796.163,641.425 794.996,645.092 793,648.5C 792.292,649.381 791.458,650.047 790.5,650.5C 791.76,645.718 793.76,641.385 796.5,637.5 Z"/></g>
<g><path style="opacity:1" fill="#e69992" d="M 727.5,650.5 C 724.56,655.442 721.226,660.108 717.5,664.5C 717.446,661.033 718.946,658.366 722,656.5C 722.354,653.086 724.188,651.086 727.5,650.5 Z"/></g>
<g><path style="opacity:1" fill="#ebaba5" d="M 210.5,652.5 C 214.506,661.718 218.506,671.051 222.5,680.5C 219.26,678.887 217.76,676.22 218,672.5C 214.986,669.553 213.652,665.887 214,661.5C 210.955,659.281 209.789,656.281 210.5,652.5 Z"/></g>
<g><path style="opacity:1" fill="#e69b94" d="M 790.5,651.5 C 790.439,656.276 788.772,660.276 785.5,663.5C 785.343,662.127 785.51,660.793 786,659.5C 787.978,657.028 789.478,654.361 790.5,651.5 Z"/></g>
<g><path style="opacity:1" fill="#e5948d" d="M 286.5,657.5 C 288.28,663.318 290.614,668.985 293.5,674.5C 288.92,669.869 286.587,664.202 286.5,657.5 Z"/></g>
<g><path style="opacity:1" fill="#dd7a71" d="M 354.5,662.5 C 356.017,662.511 357.184,663.177 358,664.5C 362.052,669.712 365.885,675.045 369.5,680.5C 368.504,680.586 367.671,680.252 367,679.5C 362.645,673.977 358.478,668.31 354.5,662.5 Z"/></g>
<g><path style="opacity:1" fill="#ebaba5" d="M 717.5,664.5 C 715.199,668.134 712.532,671.467 709.5,674.5C 709.343,673.127 709.51,671.793 710,670.5C 712.299,668.215 714.799,666.215 717.5,664.5 Z"/></g>
<g><path style="opacity:1" fill="#e69790" d="M 863.5,651.5 C 862.355,655.416 861.522,659.416 861,663.5C 860,664.5 859,665.5 858,666.5C 855.671,672.817 853.338,679.151 851,685.5C 849.847,687.818 848.347,689.818 846.5,691.5C 846.62,689.801 846.954,688.135 847.5,686.5C 851.798,680.434 854.631,673.767 856,666.5C 859.817,663.863 861.484,660.196 861,655.5C 861.2,653.68 862.034,652.347 863.5,651.5 Z"/></g>
<g><path style="opacity:1" fill="#df7f76" d="M 427.5,654.5 C 417.133,666.867 405.799,678.201 393.5,688.5C 403.309,678.187 413.476,667.854 424,657.5C 424.483,656.552 424.649,655.552 424.5,654.5C 425.5,654.5 426.5,654.5 427.5,654.5 Z"/></g>
<g><path style="opacity:1" fill="#de7a71" d="M 709.5,674.5 C 703.1,682.405 696.1,689.905 688.5,697C 686.833,697.667 685.167,697.667 683.5,697C 678.963,692.631 674.63,688.131 670.5,683.5C 675.786,687.613 680.952,691.946 686,696.5C 692.29,691.212 698.29,685.545 704,679.5C 704.752,676.579 706.585,674.913 709.5,674.5 Z"/></g>
<g><path style="opacity:1" fill="#efb5b0" d="M 781.5,671.5 C 781.643,673.262 781.309,674.929 780.5,676.5C 778.248,679.368 776.082,682.368 774,685.5C 774.673,690.649 772.506,693.649 767.5,694.5C 772.174,686.828 776.841,679.162 781.5,671.5 Z"/></g>
<g><path style="opacity:1" fill="#ecaca6" d="M 378.5,689.5 C 381.121,691.485 384.121,692.485 387.5,692.5C 386.341,694.377 384.674,694.877 382.5,694C 380.249,693.252 378.916,691.752 378.5,689.5 Z"/></g>
<g><path style="opacity:1" fill="#e9a9a4" d="M 846.5,692.5 C 844.91,695.426 843.41,698.426 842,701.5C 841.292,702.381 840.458,703.047 839.5,703.5C 840.898,700.149 842.398,696.816 844,693.5C 844.671,692.748 845.504,692.414 846.5,692.5 Z"/></g>
<g><path style="opacity:1" fill="#e4948d" d="M 767.5,695.5 C 767.762,696.978 767.429,698.311 766.5,699.5C 764.493,701.533 762.493,703.533 760.5,705.5C 762.062,701.608 764.395,698.275 767.5,695.5 Z"/></g>
<g><path style="opacity:1" fill="#d9695e" d="M 254.5,736.5 C 257.977,738.64 260.311,741.64 261.5,745.5C 259.983,745.489 258.816,744.823 258,743.5C 257.011,741.03 255.845,738.697 254.5,736.5 Z"/></g>
<g><path style="opacity:1" fill="#de7f77" d="M 581.5,597.5 C 581.217,598.289 580.717,598.956 580,599.5C 579.209,684.17 578.376,768.836 577.5,853.5C 577.167,853.5 576.833,853.5 576.5,853.5C 576.98,768.497 577.813,683.497 579,598.5C 579.671,597.748 580.504,597.414 581.5,597.5 Z"/></g>
<g><path style="opacity:1" fill="#e4958f" d="M 756.5,711.5 C 748.259,722.418 739.592,733.085 730.5,743.5C 733.263,746.252 735.597,749.252 737.5,752.5C 734.87,750.372 732.37,748.039 730,745.5C 729.333,744.167 729.333,742.833 730,741.5C 738.699,731.306 747.532,721.306 756.5,711.5 Z"/></g>
<g><path style="opacity:1" fill="#e4938c" d="M 266.5,751.5 C 268.371,751.859 269.871,752.859 271,754.5C 271.564,756.887 272.73,758.887 274.5,760.5C 272.983,760.489 271.816,759.823 271,758.5C 270.096,755.767 268.596,753.433 266.5,751.5 Z"/></g>
<g><path style="opacity:1" fill="#df7c72" d="M 335.5,733.5 C 337.411,733.574 338.578,734.574 339,736.5C 339.706,738.971 339.373,741.305 338,743.5C 333.625,748.387 329.125,753.22 324.5,758C 323.473,758.513 322.473,759.013 321.5,759.5C 326.807,754.023 331.974,748.357 337,742.5C 337.932,739.177 337.432,736.177 335.5,733.5 Z"/></g>
<g><path style="opacity:1" fill="#df8279" d="M 493.5,612.5 C 493.117,705.671 492.117,798.671 490.5,891.5C 490.426,818.832 490.759,746.165 491.5,673.5C 491.5,652.822 492.167,632.489 493.5,612.5 Z"/></g>
<g><path style="opacity:1" fill="#e69a94" d="M 314.5,765.5 C 310.985,770.51 306.985,775.01 302.5,779C 300.557,780.555 298.39,781.722 296,782.5C 294.699,782.361 293.866,781.695 293.5,780.5C 298.593,780.451 302.26,778.118 304.5,773.5C 307.843,770.773 311.176,768.106 314.5,765.5 Z"/></g>
<g><path style="opacity:1" fill="#dd7970" d="M 819.5,736.5 C 806.344,754.636 791.344,771.302 774.5,786.5C 782.13,777.369 790.297,768.702 799,760.5C 804.993,751.682 811.827,743.682 819.5,736.5 Z"/></g>
<g><path style="opacity:1" fill="#edb8b4" d="M 576.5,861.5 C 575.879,934.165 575.546,1006.83 575.5,1079.5C 575.167,1079.5 574.833,1079.5 574.5,1079.5C 574.333,1020.5 574.5,961.499 575,902.5C 575.169,888.661 575.669,874.994 576.5,861.5 Z"/></g>
<g><path style="opacity:1" fill="#d8685e" d="M 576.5,853.5 C 576.833,853.5 577.167,853.5 577.5,853.5C 576.949,928.832 576.616,1004.17 576.5,1079.5C 576.167,1079.5 575.833,1079.5 575.5,1079.5C 575.546,1006.83 575.879,934.165 576.5,861.5C 576.5,858.833 576.5,856.167 576.5,853.5 Z"/></g>
<g><path style="opacity:1" fill="#e18a82" d="M 490.5,918.5 C 490.5,972.167 490.5,1025.83 490.5,1079.5C 489.833,1079.5 489.167,1079.5 488.5,1079.5C 488.558,1025.66 489.224,971.995 490.5,918.5 Z"/></g>
</svg>
